<svg width="1080" height="1080" viewBox="0 0 1080 1080" fill="none" xmlns="http://www.w3.org/2000/svg">
<path d="M540 46L987.735 292.75V786.25L540 1033L92.2649 786.25V292.75L540 46Z" fill="white"/>
<path d="M938.305 321.5L539.5 103L140.695 321.5V747L90.5 788V292L539.5 46.5L988.5 292V788L539.5 1033L140.5 814L180 780L539.5 977L938.305 758.5V321.5Z" fill="#58008E"/>
<path d="M684 655.971L730.367 621.634L861.305 800.687L841.028 868.018L684 655.971Z" fill="#58008E"/>
<path d="M140.695 747L90.5 788V725.5L306.5 173.898L362.5 143.278L552.102 672.857L581.399 799.366L533.227 758.5L495.906 702.42L334.682 248.838H330.42L140.695 747ZM180.787 494.932H468.675L465.718 523.5L464.744 553.273H157.942L180.787 494.932Z" fill="#58008E"/>
<path d="M946.278 553.273C946.278 610.801 935.891 660.517 915.117 702.42C894.343 744.324 865.845 776.639 829.624 799.366C793.402 822.094 752.031 833.457 705.511 833.457C658.992 833.457 617.621 822.094 581.399 799.366C545.178 776.639 516.68 744.324 495.906 702.42C475.131 660.517 464.744 610.801 464.744 553.273C464.744 495.744 475.131 446.028 495.906 404.125C516.68 362.222 545.178 329.906 581.399 307.179C617.621 284.452 658.992 273.088 705.511 273.088C752.031 273.088 793.402 284.452 829.624 307.179C865.845 329.906 894.343 362.222 915.117 404.125C935.891 446.028 946.278 495.744 946.278 553.273ZM882.358 553.273C882.358 506.043 874.457 466.181 858.654 433.688C843.029 401.195 821.811 376.604 795 359.913C768.366 343.223 738.537 334.878 705.511 334.878C672.486 334.878 642.567 343.223 615.756 359.913C589.123 376.604 567.905 401.195 552.102 433.688C536.477 466.181 528.665 506.043 528.665 553.273C528.665 600.503 536.477 640.364 552.102 672.857C567.905 705.35 589.123 729.942 615.756 746.632C642.567 763.322 672.486 771.668 705.511 771.668C738.537 771.668 768.366 763.322 795 746.632C821.811 729.942 843.029 705.35 858.654 672.857C874.457 640.364 882.358 600.503 882.358 553.273Z" fill="#58008E"/>
</svg>
